<svg xmlns="http://www.w3.org/2000/svg" width="81.72" height="90.137" viewBox="0 0 81.72 90.137">
  <g id="box" transform="translate(-85 115.135)">
    <path id="Path_2054" data-name="Path 2054" d="M74.72,57.776V25.9a7.969,7.969,0,0,0-3.984-6.893L42.844,3.07a7.969,7.969,0,0,0-7.969,0L6.984,19.008A7.969,7.969,0,0,0,3,25.9V57.776A7.969,7.969,0,0,0,6.984,64.67L34.875,80.607a7.969,7.969,0,0,0,7.969,0L70.735,64.67A7.969,7.969,0,0,0,74.72,57.776Z" transform="translate(87 -112)" fill="none" stroke="#767b91" stroke-linecap="round" stroke-linejoin="round" stroke-width="10"/>
    <path id="Path_2055" data-name="Path 2055" d="M3.27,6.96,38.054,27.082,72.838,6.96" transform="translate(87.806 -97.203)" fill="none" stroke="#767b91" stroke-linecap="round" stroke-linejoin="round" stroke-width="10"/>
    <line id="Line_1" data-name="Line 1" y1="40.163" transform="translate(125.86 -70.161)" fill="none" stroke="#767b91" stroke-linecap="round" stroke-linejoin="round" stroke-width="10"/>
  </g>
</svg>
